<svg xmlns="http://www.w3.org/2000/svg" height="40" viewBox="0 -960 960 960" width="40"><path d="M198.001-214.333 300.334-389q-3.333.667-7.334 1-4 .333-7.333.333-68.333-6.666-112.5-56.5Q129-494 129-560q0-73.9 51.217-124.617 51.216-50.716 125.116-50.716 73 0 123.834 50.716Q480-633.9 480-560q0 21.667-5.167 42-5.166 20.333-14.5 38L307.667-214.333H198.001Zm390.999 0L690.334-389q-3.334.667-7.334 1-4 .333-7.333.333-68.334-6.666-112-56.5Q520-494 520-560q0-73.9 50.717-124.617 50.716-50.716 124.616-50.716 73 0 124.334 50.716Q871-633.9 871-560q0 21.667-5.167 42-5.166 20.333-14.5 38L697.667-214.333H589Z"/></svg>