<?xml version="1.0" encoding="UTF-8" standalone="no"?><!DOCTYPE svg PUBLIC "-//W3C//DTD SVG 1.1//EN" "http://www.w3.org/Graphics/SVG/1.1/DTD/svg11.dtd"><svg width="100%" height="100%" viewBox="0 0 1792 256" version="1.1" xmlns="http://www.w3.org/2000/svg" xmlns:xlink="http://www.w3.org/1999/xlink" xml:space="preserve" xmlns:serif="http://www.serif.com/" style="fill-rule:evenodd;clip-rule:evenodd;stroke-linejoin:round;stroke-miterlimit:2;"><rect id="Artboard1" x="0" y="0" width="1792" height="256" style="fill:none;"/><clipPath id="_clip1"><rect id="Artboard11" serif:id="Artboard1" x="0" y="0" width="1792" height="256"/></clipPath><g clip-path="url(#_clip1)"><g><g><path d="M73.76,93.242c7.018,0 13.347,5.565 13.347,13.216c0,6.955 -5.619,13.214 -13.347,13.214c-7.727,0 -13.347,-6.259 -13.347,-13.214c0,-7.651 5.62,-13.216 13.347,-13.216Z" style="fill:#cce5ff;"/><path d="M174.91,58.466c9.835,0 17.562,7.658 17.562,17.388c0,9.738 -7.727,17.388 -17.562,17.388c-9.834,0 -17.562,-7.65 -17.562,-17.388c0,-9.73 7.728,-17.388 17.562,-17.388Z" style="fill:#cce5ff;"/><path d="M280.275,93.242c9.835,0 17.555,7.658 17.555,17.389c0,9.737 -7.72,17.388 -17.555,17.388c-9.834,-0 -17.562,-7.651 -17.562,-17.388c0,-9.731 7.728,-17.389 17.562,-17.389Z" style="fill:#cce5ff;"/><path d="M319.607,50.12c7.025,-0 13.347,5.571 13.347,13.222c0,6.955 -5.613,13.215 -13.347,13.215c-7.72,-0 -13.347,-6.26 -13.347,-13.911c-0,-6.955 5.627,-12.526 13.347,-12.526Z" style="fill:#cce5ff;"/><path d="M16.157,128.019c12.645,25.741 40.041,43.122 70.95,43.122c12.645,0 23.878,-2.782 34.415,-7.65c14.05,-6.956 30.909,-6.956 45.661,-0c10.537,4.868 21.77,7.65 34.414,7.65c12.652,0 23.885,-2.782 34.422,-7.65c14.05,-6.956 30.909,-6.956 45.661,-0c10.537,4.868 21.77,7.65 34.414,7.65c30.91,0 57.604,-17.381 70.951,-43.122c4.917,10.433 8.43,21.568 8.43,33.385c0.702,43.818 -35.124,79.29 -78.678,79.29c-12.638,-0 -23.884,-2.783 -34.414,-7.651c-14.05,-6.955 -30.909,-6.955 -45.662,0c-10.53,4.868 -21.776,7.651 -34.421,7.651c-12.638,-0 -23.884,-2.783 -34.414,-7.651c-14.05,-6.955 -30.91,-6.955 -45.662,0c-10.53,4.868 -21.77,7.651 -34.421,7.651c-44.25,-0 -79.373,-35.472 -78.664,-79.29c-1.412,-11.817 1.405,-22.952 7.018,-33.385Z" style="fill:#cce5ff;"/><path d="M87.107,106.458c0,-6.956 -5.619,-13.216 -13.347,-13.216c-7.727,0 -13.347,5.565 -13.347,13.216c0,7.65 5.62,13.214 13.347,13.214c7.728,0 13.347,-6.259 13.347,-13.214Zm105.365,-30.604c0,-9.73 -7.727,-17.388 -17.562,-17.388c-9.834,0 -17.562,7.658 -17.562,17.388c0,9.738 7.728,17.388 17.562,17.388c9.835,0 17.562,-7.65 17.562,-17.388Zm105.358,34.777c0,-9.731 -7.72,-17.389 -17.555,-17.389c-9.834,0 -17.562,7.658 -17.562,17.389c0,9.737 7.728,17.388 17.562,17.388c9.835,-0 17.555,-7.651 17.555,-17.388Zm35.124,-47.985c0,-6.955 -5.613,-13.215 -13.347,-13.215c-7.72,0 -13.347,6.26 -13.347,13.215c-0,6.956 5.627,13.208 13.347,13.208c7.734,0 13.347,-5.557 13.347,-13.208Zm-326.632,29.205c-6.119,-57.811 101.417,-95.255 114.497,-69.552c7.397,14.536 30.91,6.955 45.661,-0c10.53,-4.862 21.777,-7.644 34.422,-7.644c12.638,0 23.884,2.782 34.415,7.644c14.752,6.955 30.909,6.955 45.661,-0c9.835,-4.862 21.074,-7.644 33.016,-7.644c43.547,-0.695 80.069,34.081 80.069,77.196c-0,13.222 -2.803,25.039 -8.43,36.168c-12.638,25.741 -40.027,43.122 -70.943,43.122c-12.638,0 -23.877,-2.782 -34.415,-7.65c-14.049,-6.956 -30.909,-6.956 -45.654,-0c-10.544,4.868 -21.777,7.65 -34.429,7.65c-12.637,0 -23.877,-2.782 -34.414,-7.65c-14.049,-6.956 -30.909,-6.956 -45.654,-0c-10.544,4.868 -21.777,7.65 -34.429,7.65c-30.902,0 -57.596,-17.381 -70.943,-43.122c-5.613,-11.129 -8.43,-22.946 -8.43,-36.168Z" style="fill:#ffd8df;"/><path d="M315.399,249.735c-13.347,0 -25.992,-2.781 -37.934,-8.346c-11.942,-5.564 -25.991,-5.564 -37.934,-0c-11.942,5.565 -24.586,8.346 -37.934,8.346c-13.34,0 -25.991,-2.781 -37.933,-8.346c-11.935,-5.564 -25.985,-5.564 -37.927,-0c-11.943,5.565 -24.587,8.346 -37.934,8.346c-23.878,0 -45.654,-9.041 -62.514,-25.734c-16.859,-16.692 -25.289,-38.949 -25.289,-62.597c-0,-13.215 3.512,-25.728 9.139,-37.558c2.1,-4.174 7.721,-0.705 11.935,1.381c4.215,2.094 6.322,7.651 4.215,11.824c-4.917,9.042 -7.025,13.92 -7.025,24.353c0,18.779 7.025,36.167 20.372,50.078c13.347,13.215 30.902,20.865 49.876,20.865c10.531,0 21.068,-2.086 30.207,-6.955c16.853,-8.346 36.515,-8.346 53.381,0c9.828,4.869 19.663,6.955 30.2,6.955c10.544,0 21.074,-2.086 30.206,-6.955c16.86,-8.346 36.529,-8.346 53.389,0c9.835,4.869 19.669,6.955 30.199,6.955c18.968,0 36.529,-7.65 49.877,-20.865c13.347,-13.215 20.372,-31.299 20.372,-50.078c-0,-10.433 -2.81,-20.17 -7.025,-29.908c-2.108,-4.173 -0.703,-9.73 4.215,-11.824c4.208,-2.086 9.834,-0.688 11.942,4.174c5.613,11.83 9.132,24.343 9.132,37.558c-0,23.648 -8.43,45.905 -25.289,62.597c-18.265,16.693 -40.744,25.734 -63.919,25.734Z" style="fill:#007bff;"/><path d="M73.76,102.284c-2.107,0 -4.222,2.094 -4.222,4.174c0,2.093 2.115,4.173 4.222,4.173c2.101,-0 4.215,-2.08 4.215,-4.173c0,-2.783 -2.114,-4.174 -4.215,-4.174Zm0,25.735c-11.942,-0 -21.777,-9.731 -21.777,-21.561c0,-11.818 9.835,-21.562 21.777,-21.562c11.935,0 21.77,9.744 21.77,21.562c0,11.83 -9.835,21.561 -21.77,21.561Z" style="fill:#007bff;"/><path d="M319.607,58.466c-2.101,0 -4.208,2.087 -4.208,4.18c0,2.08 2.107,4.173 4.208,4.173c2.108,0 4.222,-2.093 4.222,-4.173c-0,-2.093 -2.114,-4.18 -4.222,-4.18Zm-0,26.43c-11.942,0 -21.777,-9.737 -21.777,-21.554c0,-11.831 9.835,-21.561 21.777,-21.561c11.942,-0 21.777,9.73 21.777,21.561c0,11.817 -9.835,21.554 -21.777,21.554Z" style="fill:#007bff;"/><path d="M280.275,102.284c-4.917,0 -9.132,4.174 -9.132,9.049c0,4.862 4.215,9.035 9.132,9.035c4.917,0 9.132,-4.173 9.132,-9.035c0,-4.875 -4.924,-9.049 -9.132,-9.049Zm0,34.776c-14.752,0 -26.694,-11.816 -26.694,-26.429c-0,-14.606 11.942,-26.423 26.694,-26.423c14.745,-0 26.695,11.817 26.695,26.423c-0,14.613 -12.645,26.429 -26.695,26.429Z" style="fill:#007bff;"/><path d="M174.91,67.508c-4.917,0 -9.132,4.173 -9.132,9.049c-0,4.861 4.215,9.035 9.132,9.035c4.918,-0 9.133,-4.174 9.133,-9.035c-0,-4.876 -4.918,-9.049 -9.133,-9.049Zm0,34.776c-14.752,0 -26.694,-11.817 -26.694,-26.43c0,-14.605 11.942,-26.423 26.694,-26.423c14.752,0 26.687,11.818 26.687,26.423c0,14.613 -12.644,26.43 -26.687,26.43Z" style="fill:#007bff;"/><path d="M315.399,180.183c-13.347,-0 -25.992,-2.782 -37.934,-8.346c-11.942,-5.565 -25.991,-5.565 -37.934,-0c-11.942,5.564 -24.586,8.346 -37.934,8.346c-13.34,-0 -25.991,-2.782 -37.933,-8.346c-11.935,-5.565 -25.985,-5.565 -37.927,-0c-11.943,5.564 -24.587,8.346 -37.934,8.346c-33.712,-0 -63.919,-18.779 -78.664,-47.984c-6.329,-12.527 -9.139,-25.741 -9.139,-39.652c0.709,-32.683 18.967,-61.902 48.471,-76.508c4.215,-2.079 9.835,-0.695 11.942,4.173c2.101,4.181 0.703,9.738 -4.215,11.831c-23.884,11.817 -38.629,35.465 -39.338,61.199c-0,11.136 2.107,22.264 7.024,32.002c11.949,23.64 35.826,38.247 63.223,38.247c10.53,-0 21.074,-2.087 30.2,-6.956c16.859,-8.346 36.529,-8.346 53.388,0c9.828,4.869 19.663,6.956 30.207,6.956c10.537,-0 21.068,-2.087 30.2,-6.956c16.866,-8.346 36.529,-8.346 53.381,0c9.842,4.869 19.676,6.956 30.207,6.956c26.694,-0 51.281,-14.607 63.223,-38.247c4.917,-9.738 7.72,-20.866 7.024,-32.002c0,-18.779 -7.727,-36.167 -21.074,-48.686c-13.347,-13.911 -31.604,-20.866 -49.869,-20.866c-10.544,0 -19.669,2.782 -28.802,6.955c-16.859,8.353 -36.529,8.353 -53.388,0c-9.834,-4.868 -19.669,-6.955 -30.207,-6.955c-10.53,0 -21.074,2.087 -30.199,6.955c-16.86,8.353 -36.529,8.353 -53.389,0c-5.619,-2.775 -11.942,-4.868 -17.555,-5.557c-4.924,-0.695 -7.734,-5.571 -7.024,-10.433c0.695,-4.875 5.613,-7.65 10.53,-6.955c7.734,1.384 15.455,3.478 22.479,6.955c11.942,5.557 25.992,5.557 37.934,0c11.942,-5.571 24.58,-8.353 37.927,-8.353c13.347,-0 25.992,2.782 37.934,8.353c11.942,5.557 25.992,5.557 37.934,0c11.239,-5.571 23.884,-8.353 36.522,-8.353c23.182,-0.695 45.661,8.353 62.52,24.343c16.853,15.997 26.688,38.254 26.688,61.206c-0,13.911 -2.81,27.821 -9.126,39.645c-16.157,29.908 -46.364,48.687 -79.373,48.687Z" style="fill:#007bff;"/><path d="M48.471,16.039l7.727,16.004l-7.727,-16.004c17.356,-6.953 35.742,-10.136 55.489,-8.339l-3.506,17.388c-15.01,-1.941 -29.782,0.049 -44.256,6.955" style="fill:#007bff;"/></g><g><path d="M503.883,47.591l-0,62.501c-0,6.25 1.537,11.062 4.613,14.435c3.075,3.373 7.589,5.059 13.542,5.059c5.952,0 10.516,-1.686 13.69,-5.059c3.175,-3.373 4.762,-8.185 4.762,-14.435l0,-62.501l25.447,0l0,62.352c0,9.326 -1.984,17.213 -5.952,23.661c-3.969,6.449 -9.301,11.31 -15.998,14.584c-6.696,3.274 -14.162,4.911 -22.396,4.911c-8.234,-0 -15.6,-1.612 -22.098,-4.837c-6.498,-3.224 -11.633,-8.085 -15.402,-14.583c-3.77,-6.498 -5.655,-14.41 -5.655,-23.736l-0,-62.352l25.447,0Zm35.566,-20.983l-35.864,15.031l-0,-17.56l35.864,-17.263l-0,19.792Z" style="fill:#007bff;"/><path d="M644.361,152.057l-35.119,-46.132l-0,46.132l-25.447,0l-0,-104.466l25.447,0l-0,45.834l34.822,-45.834l29.911,0l-40.477,51.191l41.965,53.275l-31.102,0Z" style="fill:#007bff;"/><path d="M712.964,132.414l33.333,-0l0,19.643l-58.78,0l-0,-104.466l25.447,0l-0,84.823Z" style="fill:#007bff;"/><rect x="758.5" y="47.591" width="25.447" height="104.466" style="fill:#007bff;"/><path d="M841.537,47.591c11.012,0 20.635,2.183 28.87,6.548c8.234,4.365 14.608,10.491 19.122,18.378c4.514,7.887 6.771,16.989 6.771,27.307c0,10.218 -2.257,19.296 -6.771,27.233c-4.514,7.936 -10.913,14.087 -19.197,18.452c-8.284,4.366 -17.882,6.548 -28.795,6.548l-39.137,0l-0,-104.466l39.137,0Zm-1.637,82.442c9.623,-0 17.114,-2.629 22.471,-7.887c5.357,-5.258 8.036,-12.699 8.036,-22.322c-0,-9.623 -2.679,-17.113 -8.036,-22.471c-5.357,-5.357 -12.848,-8.035 -22.471,-8.035l-12.053,-0l-0,60.715l12.053,-0Z" style="fill:#007bff;"/><path d="M959.992,153.099c-9.822,-0 -18.825,-2.282 -27.01,-6.846c-8.184,-4.563 -14.683,-10.937 -19.494,-19.122c-4.812,-8.185 -7.218,-17.386 -7.218,-27.605c0,-10.218 2.406,-19.395 7.218,-27.53c4.811,-8.135 11.31,-14.484 19.494,-19.048c8.185,-4.563 17.188,-6.845 27.01,-6.845c9.821,-0 18.824,2.282 27.009,6.845c8.185,4.564 14.633,10.913 19.346,19.048c4.712,8.135 7.068,17.312 7.068,27.53c0,10.219 -2.381,19.42 -7.143,27.605c-4.762,8.185 -11.21,14.559 -19.345,19.122c-8.135,4.564 -17.114,6.846 -26.935,6.846Zm-0,-23.215c8.333,0 15.005,-2.778 20.015,-8.333c5.01,-5.556 7.515,-12.897 7.515,-22.025c-0,-9.226 -2.505,-16.592 -7.515,-22.098c-5.01,-5.506 -11.682,-8.259 -20.015,-8.259c-8.433,-0 -15.154,2.728 -20.164,8.184c-5.01,5.457 -7.515,12.848 -7.515,22.173c-0,9.227 2.505,16.593 7.515,22.099c5.01,5.506 11.731,8.259 20.164,8.259Z" style="fill:#007bff;"/><path d="M1125.62,47.591l-37.054,104.466l-31.846,0l-37.054,-104.466l27.084,0l25.893,78.87l26.042,-78.87l26.935,0Z" style="fill:#007bff;"/><path d="M1161.63,67.978l0,21.132l34.078,-0l-0,19.643l-34.078,-0l0,22.917l38.542,-0l0,20.387l-63.989,0l0,-104.466l63.989,0l0,20.387l-38.542,0Zm23.215,-41.37l-35.864,15.031l-0,-17.56l35.864,-17.263l-0,19.792Z" style="fill:#007bff;"/><path d="M1286.04,153.099c-7.639,-0 -14.484,-1.24 -20.536,-3.721c-6.052,-2.48 -10.888,-6.15 -14.509,-11.012c-3.621,-4.861 -5.531,-10.714 -5.73,-17.559l27.084,-0c0.397,3.869 1.736,6.82 4.018,8.854c2.282,2.034 5.258,3.051 8.929,3.051c3.77,-0 6.746,-0.869 8.929,-2.605c2.182,-1.736 3.273,-4.142 3.273,-7.217c0,-2.579 -0.868,-4.712 -2.604,-6.399c-1.736,-1.687 -3.869,-3.075 -6.399,-4.167c-2.529,-1.091 -6.126,-2.331 -10.789,-3.72c-6.746,-2.083 -12.252,-4.167 -16.518,-6.25c-4.266,-2.084 -7.936,-5.159 -11.012,-9.226c-3.075,-4.068 -4.613,-9.376 -4.613,-15.923c0,-9.723 3.522,-17.337 10.566,-22.843c7.043,-5.506 16.22,-8.259 27.53,-8.259c11.508,-0 20.784,2.753 27.828,8.259c7.044,5.506 10.813,13.17 11.309,22.991l-27.53,0c-0.198,-3.373 -1.438,-6.026 -3.72,-7.961c-2.282,-1.935 -5.208,-2.902 -8.78,-2.902c-3.075,0 -5.556,0.819 -7.441,2.456c-1.885,1.636 -2.827,3.993 -2.827,7.068c0,3.373 1.587,6.002 4.762,7.887c3.175,1.885 8.135,3.919 14.881,6.101c6.746,2.282 12.228,4.465 16.444,6.548c4.216,2.084 7.862,5.109 10.938,9.078c3.075,3.968 4.613,9.077 4.613,15.327c-0,5.953 -1.513,11.36 -4.539,16.221c-3.026,4.861 -7.416,8.73 -13.17,11.607c-5.754,2.877 -12.55,4.316 -20.387,4.316Z" style="fill:#007bff;"/><path d="M1365.21,132.414l33.334,-0l-0,19.643l-58.781,0l0,-104.466l25.447,0l-0,84.823Z" style="fill:#007bff;"/><path d="M1435.74,47.591l-0,62.501c-0,6.25 1.538,11.062 4.613,14.435c3.075,3.373 7.589,5.059 13.542,5.059c5.952,0 10.516,-1.686 13.691,-5.059c3.174,-3.373 4.762,-8.185 4.762,-14.435l-0,-62.501l25.447,0l-0,62.352c-0,9.326 -1.985,17.213 -5.953,23.661c-3.968,6.449 -9.301,11.31 -15.997,14.584c-6.697,3.274 -14.162,4.911 -22.396,4.911c-8.235,-0 -15.601,-1.612 -22.099,-4.837c-6.498,-3.224 -11.632,-8.085 -15.402,-14.583c-3.77,-6.498 -5.655,-14.41 -5.655,-23.736l0,-62.352l25.447,0Z" style="fill:#007bff;"/><path d="M1542.74,131.223l44.941,0l0,20.834l-73.811,0l0,-19.345l44.644,-64.287l-44.644,-0l0,-20.834l73.811,0l0,19.346l-44.941,64.286Zm31.101,-101.341l-23.065,11.757l-23.066,-11.757l-0,-17.559l23.066,12.946l23.065,-12.946l0,17.559Z" style="fill:#007bff;"/><path d="M1667.59,98.485c6.052,1.289 10.913,4.29 14.584,9.003c3.67,4.712 5.506,10.094 5.506,16.146c-0,8.73 -3.051,15.65 -9.152,20.759c-6.102,5.109 -14.609,7.664 -25.521,7.664l-48.662,0l-0,-104.466l47.025,0c10.615,0 18.924,2.431 24.926,7.292c6.002,4.861 9.003,11.458 9.003,19.792c-0,6.151 -1.612,11.26 -4.837,15.327c-3.224,4.068 -7.515,6.895 -12.872,8.483Zm-37.798,-8.631l16.667,-0c4.167,-0 7.366,-0.918 9.598,-2.753c2.232,-1.836 3.348,-4.539 3.348,-8.111c0,-3.571 -1.116,-6.299 -3.348,-8.184c-2.232,-1.885 -5.431,-2.828 -9.598,-2.828l-16.667,0l-0,21.876Zm18.75,41.667c4.266,0 7.565,-0.967 9.896,-2.902c2.332,-1.934 3.497,-4.737 3.497,-8.408c0,-3.67 -1.215,-6.547 -3.646,-8.631c-2.43,-2.083 -5.779,-3.125 -10.044,-3.125l-18.453,0l-0,23.066l18.75,0Z" style="fill:#007bff;"/><path d="M1792,47.591l-36.161,69.942l-0,34.524l-25.447,0l-0,-34.524l-36.162,-69.942l28.87,0l20.238,43.751l20.09,-43.751l28.572,0Z" style="fill:#007bff;"/><path d="M521.442,196.85l-19.048,51.935l-12.649,-0l-19.048,-51.935l11.161,-0l14.286,41.295l14.212,-41.295l11.086,-0Z" style="fill:#007bff;"/><path d="M566.012,227.282c-0,1.488 -0.1,2.827 -0.298,4.018l-30.134,-0c0.248,2.976 1.289,5.307 3.125,6.994c1.835,1.686 4.092,2.529 6.771,2.529c3.869,0 6.622,-1.661 8.259,-4.985l11.235,0c-1.191,3.969 -3.472,7.23 -6.845,9.785c-3.373,2.554 -7.515,3.832 -12.426,3.832c-3.969,-0 -7.528,-0.881 -10.677,-2.642c-3.15,-1.761 -5.606,-4.253 -7.367,-7.478c-1.761,-3.224 -2.641,-6.944 -2.641,-11.161c-0,-4.265 0.868,-8.011 2.604,-11.235c1.736,-3.224 4.167,-5.704 7.292,-7.44c3.125,-1.737 6.721,-2.605 10.789,-2.605c3.919,0 7.428,0.844 10.528,2.53c3.1,1.687 5.506,4.08 7.218,7.18c1.711,3.101 2.567,6.66 2.567,10.678Zm-10.789,-2.977c-0.05,-2.678 -1.017,-4.824 -2.902,-6.436c-1.885,-1.612 -4.192,-2.418 -6.92,-2.418c-2.579,0 -4.749,0.781 -6.51,2.344c-1.761,1.562 -2.84,3.733 -3.237,6.51l19.569,0Zm1.339,-25.819l-11.012,6.027l-11.087,-6.027l0,-7.589l11.087,6.399l11.012,-6.399l0,7.589Z" style="fill:#007bff;"/><path d="M584.018,213.963c1.339,-2.183 3.088,-3.894 5.246,-5.134c2.157,-1.24 4.625,-1.86 7.403,-1.86l-0,10.937l-2.753,0c-3.274,0 -5.742,0.769 -7.403,2.307c-1.662,1.538 -2.493,4.216 -2.493,8.036l-0,20.536l-10.417,-0l0,-41.221l10.417,-0l-0,6.399Z" style="fill:#007bff;"/><path d="M600.982,228.026c0,-4.167 0.831,-7.863 2.493,-11.087c1.662,-3.224 3.919,-5.704 6.771,-7.44c2.852,-1.737 6.039,-2.605 9.561,-2.605c3.076,0 5.767,0.62 8.073,1.86c2.307,1.241 4.155,2.803 5.544,4.688l-0,-5.878l10.491,-0l-0,41.221l-10.491,-0l-0,-6.027c-1.34,1.935 -3.188,3.534 -5.544,4.799c-2.356,1.265 -5.072,1.898 -8.147,1.898c-3.472,-0 -6.635,-0.893 -9.487,-2.679c-2.852,-1.786 -5.109,-4.303 -6.771,-7.552c-1.662,-3.249 -2.493,-6.982 -2.493,-11.198Zm32.442,0.148c-0,-2.529 -0.497,-4.7 -1.489,-6.51c-0.992,-1.811 -2.331,-3.2 -4.018,-4.167c-1.686,-0.967 -3.497,-1.451 -5.431,-1.451c-1.935,0 -3.72,0.472 -5.357,1.414c-1.637,0.942 -2.964,2.319 -3.981,4.13c-1.017,1.81 -1.525,3.955 -1.525,6.436c-0,2.48 0.508,4.65 1.525,6.51c1.017,1.86 2.356,3.286 4.018,4.279c1.662,0.992 3.435,1.488 5.32,1.488c1.934,-0 3.745,-0.484 5.431,-1.451c1.687,-0.968 3.026,-2.356 4.018,-4.167c0.992,-1.811 1.489,-3.981 1.489,-6.511Z" style="fill:#007bff;"/><path d="M689.749,249.306c-3.621,-0 -6.883,-0.62 -9.785,-1.86c-2.901,-1.24 -5.196,-3.026 -6.882,-5.358c-1.687,-2.331 -2.555,-5.084 -2.604,-8.259l11.161,0c0.148,2.133 0.905,3.82 2.269,5.06c1.364,1.24 3.237,1.86 5.618,1.86c2.43,0 4.34,-0.583 5.729,-1.748c1.389,-1.166 2.083,-2.691 2.083,-4.576c0,-1.538 -0.471,-2.803 -1.413,-3.795c-0.943,-0.992 -2.121,-1.773 -3.535,-2.344c-1.413,-0.57 -3.36,-1.203 -5.841,-1.897c-3.373,-0.992 -6.113,-1.972 -8.221,-2.939c-2.109,-0.968 -3.919,-2.431 -5.432,-4.39c-1.513,-1.96 -2.269,-4.576 -2.269,-7.85c-0,-3.076 0.768,-5.754 2.306,-8.036c1.538,-2.282 3.696,-4.03 6.473,-5.246c2.778,-1.215 5.953,-1.823 9.524,-1.823c5.358,0 9.71,1.303 13.059,3.907c3.348,2.604 5.196,6.237 5.543,10.9l-11.459,0c-0.099,-1.785 -0.855,-3.261 -2.269,-4.427c-1.414,-1.166 -3.286,-1.748 -5.618,-1.748c-2.033,-0 -3.658,0.52 -4.873,1.562c-1.216,1.042 -1.823,2.555 -1.823,4.539c-0,1.389 0.459,2.542 1.376,3.46c0.918,0.917 2.059,1.661 3.423,2.232c1.364,0.57 3.286,1.228 5.766,1.972c3.374,0.992 6.127,1.984 8.26,2.976c2.133,0.992 3.968,2.48 5.506,4.464c1.537,1.984 2.306,4.589 2.306,7.813c0,2.778 -0.719,5.357 -2.158,7.738c-1.438,2.381 -3.546,4.278 -6.324,5.692c-2.778,1.414 -6.077,2.121 -9.896,2.121Z" style="fill:#007bff;"/><path d="M734.318,239.187l10.417,-31.623l11.086,-0l-15.253,41.221l-12.649,-0l-15.179,-41.221l11.161,-0l10.417,31.623Z" style="fill:#007bff;"/><path d="M780.003,249.455c-3.968,-0 -7.539,-0.881 -10.714,-2.642c-3.175,-1.761 -5.667,-4.253 -7.478,-7.478c-1.81,-3.224 -2.716,-6.944 -2.716,-11.161c0,-4.216 0.93,-7.936 2.791,-11.16c1.86,-3.225 4.402,-5.717 7.626,-7.478c3.224,-1.761 6.821,-2.642 10.789,-2.642c3.968,0 7.565,0.881 10.789,2.642c3.224,1.761 5.766,4.253 7.627,7.478c1.86,3.224 2.79,6.944 2.79,11.16c-0,4.217 -0.955,7.937 -2.865,11.161c-1.91,3.225 -4.489,5.717 -7.738,7.478c-3.249,1.761 -6.883,2.642 -10.901,2.642Zm0,-9.078c1.885,0 3.659,-0.459 5.32,-1.376c1.662,-0.918 2.989,-2.295 3.981,-4.13c0.992,-1.835 1.488,-4.068 1.488,-6.697c0,-3.918 -1.029,-6.932 -3.088,-9.04c-2.058,-2.108 -4.576,-3.162 -7.552,-3.162c-2.976,-0 -5.469,1.054 -7.478,3.162c-2.009,2.108 -3.013,5.122 -3.013,9.04c-0,3.919 0.98,6.933 2.939,9.041c1.959,2.108 4.427,3.162 7.403,3.162Z" style="fill:#007bff;"/><path d="M819.587,213.591c1.34,-1.984 3.187,-3.596 5.544,-4.837c2.356,-1.24 5.047,-1.86 8.073,-1.86c3.522,0 6.709,0.868 9.561,2.605c2.852,1.736 5.109,4.203 6.771,7.403c1.662,3.199 2.492,6.907 2.492,11.124c0,4.216 -0.83,7.949 -2.492,11.198c-1.662,3.249 -3.919,5.766 -6.771,7.552c-2.852,1.786 -6.039,2.679 -9.561,2.679c-3.076,-0 -5.767,-0.608 -8.073,-1.823c-2.307,-1.216 -4.155,-2.791 -5.544,-4.725l0,5.878l-10.416,-0l-0,-55.061l10.416,0l0,19.867Zm21.801,14.435c0,-2.481 -0.508,-4.626 -1.525,-6.436c-1.017,-1.811 -2.356,-3.188 -4.018,-4.13c-1.662,-0.942 -3.46,-1.414 -5.394,-1.414c-1.885,0 -3.659,0.484 -5.32,1.451c-1.662,0.967 -3.001,2.369 -4.018,4.204c-1.017,1.835 -1.526,3.993 -1.526,6.473c0,2.481 0.509,4.638 1.526,6.474c1.017,1.835 2.356,3.236 4.018,4.204c1.661,0.967 3.435,1.451 5.32,1.451c1.934,-0 3.732,-0.496 5.394,-1.488c1.662,-0.993 3.001,-2.406 4.018,-4.242c1.017,-1.835 1.525,-4.018 1.525,-6.547Z" style="fill:#007bff;"/><path d="M877.922,249.455c-3.969,-0 -7.54,-0.881 -10.715,-2.642c-3.174,-1.761 -5.667,-4.253 -7.478,-7.478c-1.81,-3.224 -2.715,-6.944 -2.715,-11.161c-0,-4.216 0.93,-7.936 2.79,-11.16c1.86,-3.225 4.402,-5.717 7.627,-7.478c3.224,-1.761 6.82,-2.642 10.788,-2.642c3.969,0 7.565,0.881 10.789,2.642c3.225,1.761 5.767,4.253 7.627,7.478c1.86,3.224 2.79,6.944 2.79,11.16c0,4.217 -0.955,7.937 -2.865,11.161c-1.909,3.225 -4.489,5.717 -7.738,7.478c-3.249,1.761 -6.882,2.642 -10.9,2.642Zm-0,-9.078c1.885,0 3.658,-0.459 5.32,-1.376c1.662,-0.918 2.988,-2.295 3.981,-4.13c0.992,-1.835 1.488,-4.068 1.488,-6.697c-0,-3.918 -1.03,-6.932 -3.088,-9.04c-2.059,-2.108 -4.576,-3.162 -7.552,-3.162c-2.977,-0 -5.469,1.054 -7.478,3.162c-2.009,2.108 -3.014,5.122 -3.014,9.04c0,3.919 0.98,6.933 2.939,9.041c1.96,2.108 4.428,3.162 7.404,3.162Z" style="fill:#007bff;"/><path d="M904.41,228.026c0,-4.167 0.831,-7.863 2.493,-11.087c1.662,-3.224 3.931,-5.704 6.808,-7.44c2.877,-1.737 6.077,-2.605 9.598,-2.605c2.679,0 5.234,0.583 7.664,1.749c2.431,1.166 4.365,2.716 5.804,4.65l-0,-19.569l10.566,0l-0,55.061l-10.566,-0l-0,-6.101c-1.29,2.033 -3.1,3.67 -5.432,4.91c-2.331,1.241 -5.035,1.861 -8.11,1.861c-3.472,-0 -6.647,-0.893 -9.524,-2.679c-2.877,-1.786 -5.146,-4.303 -6.808,-7.552c-1.662,-3.249 -2.493,-6.982 -2.493,-11.198Zm32.441,0.148c0,-2.529 -0.496,-4.7 -1.488,-6.51c-0.992,-1.811 -2.331,-3.2 -4.018,-4.167c-1.686,-0.967 -3.497,-1.451 -5.431,-1.451c-1.935,0 -3.721,0.472 -5.358,1.414c-1.637,0.942 -2.963,2.319 -3.98,4.13c-1.017,1.81 -1.526,3.955 -1.526,6.436c0,2.48 0.509,4.65 1.526,6.51c1.017,1.86 2.356,3.286 4.018,4.279c1.661,0.992 3.435,1.488 5.32,1.488c1.934,-0 3.745,-0.484 5.431,-1.451c1.687,-0.968 3.026,-2.356 4.018,-4.167c0.992,-1.811 1.488,-3.981 1.488,-6.511Z" style="fill:#007bff;"/><path d="M975.84,249.455c-3.968,-0 -7.54,-0.881 -10.714,-2.642c-3.175,-1.761 -5.668,-4.253 -7.478,-7.478c-1.811,-3.224 -2.716,-6.944 -2.716,-11.161c0,-4.216 0.93,-7.936 2.79,-11.16c1.86,-3.225 4.403,-5.717 7.627,-7.478c3.224,-1.761 6.82,-2.642 10.789,-2.642c3.968,0 7.564,0.881 10.789,2.642c3.224,1.761 5.766,4.253 7.626,7.478c1.86,3.224 2.79,6.944 2.79,11.16c0,4.217 -0.954,7.937 -2.864,11.161c-1.91,3.225 -4.489,5.717 -7.738,7.478c-3.249,1.761 -6.883,2.642 -10.901,2.642Zm0,-9.078c1.885,0 3.658,-0.459 5.32,-1.376c1.662,-0.918 2.989,-2.295 3.981,-4.13c0.992,-1.835 1.488,-4.068 1.488,-6.697c-0,-3.918 -1.029,-6.932 -3.088,-9.04c-2.058,-2.108 -4.576,-3.162 -7.552,-3.162c-2.976,-0 -5.469,1.054 -7.478,3.162c-2.009,2.108 -3.013,5.122 -3.013,9.04c-0,3.919 0.979,6.933 2.939,9.041c1.959,2.108 4.427,3.162 7.403,3.162Z" style="fill:#007bff;"/><path d="M1022.2,239.187l10.417,-31.623l11.086,-0l-15.253,41.221l-12.649,-0l-15.179,-41.221l11.161,-0l10.417,31.623Z" style="fill:#007bff;"/><path d="M1046.9,228.026c-0,-4.167 0.831,-7.863 2.492,-11.087c1.662,-3.224 3.919,-5.704 6.771,-7.44c2.853,-1.737 6.04,-2.605 9.562,-2.605c3.075,0 5.766,0.62 8.073,1.86c2.306,1.241 4.154,2.803 5.543,4.688l-0,-5.878l10.491,-0l0,41.221l-10.491,-0l-0,-6.027c-1.339,1.935 -3.187,3.534 -5.543,4.799c-2.357,1.265 -5.072,1.898 -8.148,1.898c-3.472,-0 -6.634,-0.893 -9.487,-2.679c-2.852,-1.786 -5.109,-4.303 -6.771,-7.552c-1.661,-3.249 -2.492,-6.982 -2.492,-11.198Zm32.441,0.148c-0,-2.529 -0.496,-4.7 -1.488,-6.51c-0.992,-1.811 -2.332,-3.2 -4.018,-4.167c-1.687,-0.967 -3.497,-1.451 -5.432,-1.451c-1.934,0 -3.72,0.472 -5.357,1.414c-1.637,0.942 -2.964,2.319 -3.981,4.13c-1.017,1.81 -1.525,3.955 -1.525,6.436c-0,2.48 0.508,4.65 1.525,6.51c1.017,1.86 2.356,3.286 4.018,4.279c1.662,0.992 3.435,1.488 5.32,1.488c1.935,-0 3.745,-0.484 5.432,-1.451c1.686,-0.968 3.026,-2.356 4.018,-4.167c0.992,-1.811 1.488,-3.981 1.488,-6.511Zm-1.414,-31.324l-17.113,7.812l-0,-7.44l17.113,-8.855l0,8.483Z" style="fill:#007bff;"/></g></g></g></svg>